<mxfile host="app.diagrams.net" agent="Mozilla/5.0 (Windows NT 10.0; Win64; x64) AppleWebKit/537.36 (KHTML, like Gecko) Chrome/134.0.0.0 Safari/537.36" version="26.1.3">
  <diagram id="C5RBs43oDa-KdzZeNtuy" name="Page-1">
    <mxGraphModel dx="466" dy="491" grid="1" gridSize="10" guides="1" tooltips="1" connect="1" arrows="1" fold="1" page="1" pageScale="1" pageWidth="827" pageHeight="1169" math="0" shadow="0">
      <root>
        <mxCell id="WIyWlLk6GJQsqaUBKTNV-0" />
        <mxCell id="WIyWlLk6GJQsqaUBKTNV-1" parent="WIyWlLk6GJQsqaUBKTNV-0" />
        <mxCell id="ffEP-S0rYNtDQSLMWYcr-3" value="" style="edgeStyle=orthogonalEdgeStyle;rounded=0;orthogonalLoop=1;jettySize=auto;html=1;" edge="1" parent="WIyWlLk6GJQsqaUBKTNV-1" source="ffEP-S0rYNtDQSLMWYcr-0" target="ffEP-S0rYNtDQSLMWYcr-2">
          <mxGeometry relative="1" as="geometry" />
        </mxCell>
        <mxCell id="ffEP-S0rYNtDQSLMWYcr-0" value="Inicio" style="ellipse;whiteSpace=wrap;html=1;aspect=fixed;" vertex="1" parent="WIyWlLk6GJQsqaUBKTNV-1">
          <mxGeometry x="470" width="80" height="80" as="geometry" />
        </mxCell>
        <mxCell id="ffEP-S0rYNtDQSLMWYcr-5" value="" style="edgeStyle=orthogonalEdgeStyle;rounded=0;orthogonalLoop=1;jettySize=auto;html=1;entryX=0.5;entryY=0;entryDx=0;entryDy=0;" edge="1" parent="WIyWlLk6GJQsqaUBKTNV-1" source="ffEP-S0rYNtDQSLMWYcr-2" target="ffEP-S0rYNtDQSLMWYcr-6">
          <mxGeometry relative="1" as="geometry" />
        </mxCell>
        <mxCell id="ffEP-S0rYNtDQSLMWYcr-2" value="Bienvenida" style="rounded=1;whiteSpace=wrap;html=1;" vertex="1" parent="WIyWlLk6GJQsqaUBKTNV-1">
          <mxGeometry x="450" y="100" width="120" height="60" as="geometry" />
        </mxCell>
        <mxCell id="ffEP-S0rYNtDQSLMWYcr-9" value="" style="edgeStyle=orthogonalEdgeStyle;rounded=0;orthogonalLoop=1;jettySize=auto;html=1;" edge="1" parent="WIyWlLk6GJQsqaUBKTNV-1" source="ffEP-S0rYNtDQSLMWYcr-4" target="ffEP-S0rYNtDQSLMWYcr-8">
          <mxGeometry relative="1" as="geometry" />
        </mxCell>
        <mxCell id="ffEP-S0rYNtDQSLMWYcr-4" value="&quot;Dime un número&quot;" style="whiteSpace=wrap;html=1;rounded=1;" vertex="1" parent="WIyWlLk6GJQsqaUBKTNV-1">
          <mxGeometry x="450" y="300" width="120" height="60" as="geometry" />
        </mxCell>
        <mxCell id="ffEP-S0rYNtDQSLMWYcr-7" value="" style="edgeStyle=orthogonalEdgeStyle;rounded=0;orthogonalLoop=1;jettySize=auto;html=1;" edge="1" parent="WIyWlLk6GJQsqaUBKTNV-1" source="ffEP-S0rYNtDQSLMWYcr-25" target="ffEP-S0rYNtDQSLMWYcr-4">
          <mxGeometry relative="1" as="geometry" />
        </mxCell>
        <mxCell id="ffEP-S0rYNtDQSLMWYcr-6" value="Pensar un número" style="rounded=1;whiteSpace=wrap;html=1;" vertex="1" parent="WIyWlLk6GJQsqaUBKTNV-1">
          <mxGeometry x="450" y="180" width="120" height="60" as="geometry" />
        </mxCell>
        <mxCell id="ffEP-S0rYNtDQSLMWYcr-11" value="" style="edgeStyle=orthogonalEdgeStyle;rounded=0;orthogonalLoop=1;jettySize=auto;html=1;" edge="1" parent="WIyWlLk6GJQsqaUBKTNV-1" source="ffEP-S0rYNtDQSLMWYcr-8" target="ffEP-S0rYNtDQSLMWYcr-10">
          <mxGeometry relative="1" as="geometry" />
        </mxCell>
        <mxCell id="ffEP-S0rYNtDQSLMWYcr-12" value="SI" style="edgeLabel;html=1;align=center;verticalAlign=middle;resizable=0;points=[];" vertex="1" connectable="0" parent="ffEP-S0rYNtDQSLMWYcr-11">
          <mxGeometry x="-0.2667" y="-2" relative="1" as="geometry">
            <mxPoint as="offset" />
          </mxGeometry>
        </mxCell>
        <mxCell id="ffEP-S0rYNtDQSLMWYcr-14" value="" style="edgeStyle=orthogonalEdgeStyle;rounded=0;orthogonalLoop=1;jettySize=auto;html=1;" edge="1" parent="WIyWlLk6GJQsqaUBKTNV-1" source="ffEP-S0rYNtDQSLMWYcr-8" target="ffEP-S0rYNtDQSLMWYcr-13">
          <mxGeometry relative="1" as="geometry" />
        </mxCell>
        <mxCell id="ffEP-S0rYNtDQSLMWYcr-15" value="NO" style="edgeLabel;html=1;align=center;verticalAlign=middle;resizable=0;points=[];" vertex="1" connectable="0" parent="ffEP-S0rYNtDQSLMWYcr-14">
          <mxGeometry x="-0.3" relative="1" as="geometry">
            <mxPoint as="offset" />
          </mxGeometry>
        </mxCell>
        <mxCell id="ffEP-S0rYNtDQSLMWYcr-8" value="pensado = numero" style="rhombus;whiteSpace=wrap;html=1;rounded=1;" vertex="1" parent="WIyWlLk6GJQsqaUBKTNV-1">
          <mxGeometry x="470" y="430" width="80" height="80" as="geometry" />
        </mxCell>
        <mxCell id="ffEP-S0rYNtDQSLMWYcr-23" value="" style="edgeStyle=orthogonalEdgeStyle;rounded=0;orthogonalLoop=1;jettySize=auto;html=1;" edge="1" parent="WIyWlLk6GJQsqaUBKTNV-1" source="ffEP-S0rYNtDQSLMWYcr-10" target="ffEP-S0rYNtDQSLMWYcr-22">
          <mxGeometry relative="1" as="geometry" />
        </mxCell>
        <mxCell id="ffEP-S0rYNtDQSLMWYcr-10" value="&quot;Has acertado&quot;" style="whiteSpace=wrap;html=1;rounded=1;" vertex="1" parent="WIyWlLk6GJQsqaUBKTNV-1">
          <mxGeometry x="610" y="440" width="120" height="60" as="geometry" />
        </mxCell>
        <mxCell id="ffEP-S0rYNtDQSLMWYcr-17" value="" style="edgeStyle=orthogonalEdgeStyle;rounded=0;orthogonalLoop=1;jettySize=auto;html=1;" edge="1" parent="WIyWlLk6GJQsqaUBKTNV-1" source="ffEP-S0rYNtDQSLMWYcr-13" target="ffEP-S0rYNtDQSLMWYcr-16">
          <mxGeometry relative="1" as="geometry" />
        </mxCell>
        <mxCell id="ffEP-S0rYNtDQSLMWYcr-18" value="SI" style="edgeLabel;html=1;align=center;verticalAlign=middle;resizable=0;points=[];" vertex="1" connectable="0" parent="ffEP-S0rYNtDQSLMWYcr-17">
          <mxGeometry x="0.1667" y="-1" relative="1" as="geometry">
            <mxPoint as="offset" />
          </mxGeometry>
        </mxCell>
        <mxCell id="ffEP-S0rYNtDQSLMWYcr-20" value="" style="edgeStyle=orthogonalEdgeStyle;rounded=0;orthogonalLoop=1;jettySize=auto;html=1;" edge="1" parent="WIyWlLk6GJQsqaUBKTNV-1" source="ffEP-S0rYNtDQSLMWYcr-13" target="ffEP-S0rYNtDQSLMWYcr-19">
          <mxGeometry relative="1" as="geometry" />
        </mxCell>
        <mxCell id="ffEP-S0rYNtDQSLMWYcr-21" value="NO" style="edgeLabel;html=1;align=center;verticalAlign=middle;resizable=0;points=[];" vertex="1" connectable="0" parent="ffEP-S0rYNtDQSLMWYcr-20">
          <mxGeometry x="-0.5111" y="3" relative="1" as="geometry">
            <mxPoint as="offset" />
          </mxGeometry>
        </mxCell>
        <mxCell id="ffEP-S0rYNtDQSLMWYcr-13" value="pensado &amp;gt; numero" style="rhombus;whiteSpace=wrap;html=1;rounded=1;" vertex="1" parent="WIyWlLk6GJQsqaUBKTNV-1">
          <mxGeometry x="470" y="590" width="80" height="80" as="geometry" />
        </mxCell>
        <mxCell id="ffEP-S0rYNtDQSLMWYcr-16" value="&quot;ES MAYOR&quot;" style="whiteSpace=wrap;html=1;rounded=1;" vertex="1" parent="WIyWlLk6GJQsqaUBKTNV-1">
          <mxGeometry x="610" y="600" width="120" height="60" as="geometry" />
        </mxCell>
        <mxCell id="ffEP-S0rYNtDQSLMWYcr-28" style="edgeStyle=orthogonalEdgeStyle;rounded=0;orthogonalLoop=1;jettySize=auto;html=1;" edge="1" parent="WIyWlLk6GJQsqaUBKTNV-1" source="ffEP-S0rYNtDQSLMWYcr-19">
          <mxGeometry relative="1" as="geometry">
            <mxPoint x="900" y="630" as="targetPoint" />
          </mxGeometry>
        </mxCell>
        <mxCell id="ffEP-S0rYNtDQSLMWYcr-19" value="&quot;Es menor&quot;" style="whiteSpace=wrap;html=1;rounded=1;" vertex="1" parent="WIyWlLk6GJQsqaUBKTNV-1">
          <mxGeometry x="450" y="760" width="120" height="60" as="geometry" />
        </mxCell>
        <mxCell id="ffEP-S0rYNtDQSLMWYcr-22" value="FIN" style="ellipse;whiteSpace=wrap;html=1;rounded=1;" vertex="1" parent="WIyWlLk6GJQsqaUBKTNV-1">
          <mxGeometry x="750" y="430" width="80" height="80" as="geometry" />
        </mxCell>
        <mxCell id="ffEP-S0rYNtDQSLMWYcr-26" value="" style="edgeStyle=orthogonalEdgeStyle;rounded=0;orthogonalLoop=1;jettySize=auto;html=1;" edge="1" parent="WIyWlLk6GJQsqaUBKTNV-1" source="ffEP-S0rYNtDQSLMWYcr-16" target="ffEP-S0rYNtDQSLMWYcr-25">
          <mxGeometry relative="1" as="geometry">
            <mxPoint x="510" y="280" as="targetPoint" />
            <mxPoint x="730" y="630" as="sourcePoint" />
            <Array as="points">
              <mxPoint x="901" y="630" />
            </Array>
          </mxGeometry>
        </mxCell>
        <mxCell id="ffEP-S0rYNtDQSLMWYcr-27" value="" style="edgeStyle=orthogonalEdgeStyle;rounded=0;orthogonalLoop=1;jettySize=auto;html=1;" edge="1" parent="WIyWlLk6GJQsqaUBKTNV-1" source="ffEP-S0rYNtDQSLMWYcr-6" target="ffEP-S0rYNtDQSLMWYcr-25">
          <mxGeometry relative="1" as="geometry">
            <mxPoint x="510" y="260" as="sourcePoint" />
            <mxPoint x="510" y="300" as="targetPoint" />
          </mxGeometry>
        </mxCell>
        <mxCell id="ffEP-S0rYNtDQSLMWYcr-25" value="" style="ellipse;whiteSpace=wrap;html=1;aspect=fixed;" vertex="1" parent="WIyWlLk6GJQsqaUBKTNV-1">
          <mxGeometry x="500" y="260" width="20" height="20" as="geometry" />
        </mxCell>
      </root>
    </mxGraphModel>
  </diagram>
</mxfile>
